<svg xmlns="http://www.w3.org/2000/svg" viewBox="0 0 100 100">
  <defs>
    <linearGradient id="grad" x1="0%" y1="0%" x2="100%" y2="100%">
      <stop offset="0%" style="stop-color:#3b82f6;stop-opacity:1" />
      <stop offset="100%" style="stop-color:#9333ea;stop-opacity:1" />
    </linearGradient>
  </defs>
  <!-- Скруглённый прямоугольник фона -->
  <rect width="100" height="100" rx="20" fill="url(#grad)" />
  <!-- Белая иконка буфера обмена (Font Awesome clipboard) -->
  <g transform="translate(22,18) scale(0.12)" fill="#ffffff">
    <path d="M384 96l0 224L64 320 64 96l320 0zM64 32C28.7 32 0 60.7 0 96L0 320c0 35.3 28.7 64 64 64l117.3 0L173.3 352 64 352 64 96l320 0 0 256-109.3 0-8 32L384 384c35.3 0 64-28.7 64-64l0-224c0-35.3-28.7-64-64-64L64 32zM288 448l0-64c0-8.8-7.2-16-16-16s-16 7.2-16 16l0 64-32 0c-8.8 0-16 7.2-16 16s7.2 16 16 16l32 0 0 64c0 8.8 7.2 16 16 16s16-7.2 16-16l0-64 32 0c8.8 0 16-7.2 16-16s-7.2-16-16-16l-32 0z"/>
  </g>
</svg>